# xmcd
#
# Track frame offsets: 
#        150
#        15343
#        28066
#        41235
#        62097
#        84957
#        100015
#        116627
#        129784
#        142546
#        158675
#        165274
#        182234
#
# Disc length: 2642 seconds
#
# Revision: 0
# Processed by: cddbd v1.5.2PL0 Copyright (c) Steve Scherf et al.
# Submitted via: ExactAudioCopy v0.95a4
#
DISCID=900a500d
DTITLE=Will Tang - EVERYTHING CHANGES
DYEAR=2006
DGENRE=Blues
TTITLE0=Everything Changes
TTITLE1=Troubles Down
TTITLE2=On My Way
TTITLE3=The Other Side
TTITLE4=Red City Blues
TTITLE5=Something Special
TTITLE6=Stories
TTITLE7=Love Bites
TTITLE8=Time Of Day
TTITLE9=Drifting
TTITLE10=Sun Down
TTITLE11=Travellin' Man (remix)
TTITLE12=Love Bites (remix)
EXTD=
EXTT0=
EXTT1=
EXTT2=
EXTT3=
EXTT4=
EXTT5=
EXTT6=
EXTT7=
EXTT8=
EXTT9=
EXTT10=
EXTT11=
EXTT12=
PLAYORDER=
